<?xml version="1.0" standalone="no"?>
<!DOCTYPE svg PUBLIC "-//W3C//DTD SVG 20010904//EN"
 "http://www.w3.org/TR/2001/REC-SVG-20010904/DTD/svg10.dtd">
<svg version="1.0" xmlns="http://www.w3.org/2000/svg"
 width="225.000000pt" height="225.000000pt" viewBox="0 0 225.000000 225.000000"
 preserveAspectRatio="xMidYMid meet">
<metadata>
Created by potrace 1.16, written by Peter Selinger 2001-2019
</metadata>
<g transform="translate(0.000000,225.000000) scale(0.100000,-0.100000)"
fill="#000000" stroke="none">
<path d="M1398 2178 c-25 -20 -128 -221 -128 -250 0 -43 36 -78 79 -78 49 0
66 19 131 148 56 113 59 148 17 177 -26 18 -77 20 -99 3z"/>
<path d="M840 1799 c-79 -33 -130 -127 -130 -239 0 -127 -51 -221 -167 -307
-228 -169 -375 -288 -388 -314 -18 -33 -19 -84 -4 -127 8 -24 7 -37 -5 -61
-47 -90 21 -266 132 -343 41 -29 56 -33 117 -35 46 -1 86 -9 115 -22 30 -14
57 -18 80 -15 34 5 41 0 190 -140 85 -80 160 -146 166 -146 9 0 115 79 149
111 6 6 -23 40 -78 92 -77 73 -87 86 -87 117 0 19 -14 64 -31 100 l-30 64 33
28 c18 15 70 55 116 87 111 80 162 92 281 66 166 -36 216 -30 276 32 95 98 81
291 -40 527 -66 130 -146 235 -263 347 -130 124 -231 179 -339 185 -37 2 -79
-1 -93 -7z m166 -169 c212 -105 450 -439 479 -670 14 -119 -25 -143 -142 -85
-217 107 -469 469 -475 683 -3 108 32 126 138 72z"/>
<path d="M1010 1367 c0 -41 204 -328 220 -310 29 33 39 143 17 196 -16 36 -85
103 -123 117 -39 15 -114 13 -114 -3z"/>
<path d="M1840 1793 c-23 -9 -189 -122 -211 -144 -44 -44 -4 -129 61 -129 40
0 237 130 250 166 23 60 -42 129 -100 107z"/>
<path d="M1907 1235 c-87 -10 -113 -16 -130 -33 -30 -31 -29 -88 4 -115 22
-18 33 -19 134 -13 171 10 205 25 205 90 0 38 -10 55 -41 71 -32 17 -26 17
-172 0z"/>
</g>
</svg>
