<?xml version="1.0" standalone="no"?>
<!DOCTYPE svg PUBLIC "-//W3C//DTD SVG 20010904//EN"
 "http://www.w3.org/TR/2001/REC-SVG-20010904/DTD/svg10.dtd">
<svg version="1.0" xmlns="http://www.w3.org/2000/svg"
 width="300.000000pt" height="300.000000pt" viewBox="0 0 300.000000 300.000000"
 preserveAspectRatio="xMidYMid meet">
<metadata>
Created by potrace 1.16, written by Peter Selinger 2001-2019
</metadata>
<g transform="translate(0.000000,300.000000) scale(0.100000,-0.100000)"
fill="#000000" stroke="none">
<path d="M1280 2994 c-207 -39 -375 -129 -518 -278 -181 -189 -252 -385 -252
-696 l0 -147 -57 -6 c-71 -7 -127 -45 -160 -106 l-23 -44 0 -786 0 -786 23
-39 c12 -22 39 -53 60 -70 l39 -31 1108 0 1108 0 39 31 c21 17 48 48 60 70
l23 39 0 786 0 786 -23 44 c-33 61 -89 99 -160 106 l-57 6 0 147 c0 311 -71
507 -252 696 -121 126 -251 205 -420 255 -64 19 -101 22 -293 25 -121 1 -231
0 -245 -2z m460 -109 c308 -72 543 -295 604 -573 19 -86 24 -300 9 -357 -6
-22 -14 -73 -18 -112 l-6 -73 111 0 c115 0 143 -7 172 -44 16 -19 18 -77 18
-791 0 -855 4 -802 -66 -831 -50 -21 -2078 -21 -2128 0 -70 29 -66 -24 -66
831 0 714 2 772 18 791 31 39 55 44 216 44 l156 0 0 40 c0 34 -3 40 -21 40
-30 0 -75 50 -90 101 -8 28 -13 93 -12 174 3 201 51 345 162 480 113 137 258
227 446 276 94 24 398 26 495 4z"/>
<path d="M1375 2600 c-170 -24 -314 -118 -400 -260 -45 -75 -63 -135 -80 -260
-8 -58 -16 -112 -19 -120 -2 -8 -7 -54 -11 -102 l-6 -88 687 0 686 0 -6 23
c-3 12 -6 29 -6 39 0 9 -16 25 -35 37 -47 27 -61 64 -79 203 -9 62 -22 133
-30 156 -62 176 -206 312 -377 357 -67 18 -246 26 -324 15z m367 -143 c118
-58 200 -159 228 -279 5 -24 10 -103 10 -175 l0 -133 -481 0 -481 0 4 158 c3
152 4 159 35 224 53 113 137 188 258 230 41 15 77 18 201 16 l150 -3 76 -38z"/>
<path d="M1450 1189 c-110 -46 -132 -179 -43 -249 27 -21 28 -25 33 -148 l5
-127 55 0 55 0 5 127 c5 123 6 127 33 148 79 63 73 168 -14 232 -31 23 -95 32
-129 17z"/>
</g>
</svg>
