<?xml version="1.0" standalone="no"?>
<!DOCTYPE svg PUBLIC "-//W3C//DTD SVG 20010904//EN"
 "http://www.w3.org/TR/2001/REC-SVG-20010904/DTD/svg10.dtd">
<svg version="1.0" xmlns="http://www.w3.org/2000/svg"
 width="512.000000pt" height="512.000000pt" viewBox="0 0 512.000000 512.000000"
 preserveAspectRatio="xMidYMid meet">
<metadata>
Created by potrace 1.16, written by Peter Selinger 2001-2019
</metadata>
<g transform="translate(0.000000,512.000000) scale(0.100000,-0.100000)"
fill="#000000" stroke="none">
<path d="M2305 4899 c-38 -5 -88 -7 -110 -4 -22 3 -53 1 -70 -5 -26 -8 -23 -9
20 -5 32 3 12 -4 -55 -19 -162 -36 -255 -64 -378 -112 -62 -25 -118 -42 -124
-38 -7 5 -8 3 -3 -6 6 -10 4 -12 -9 -7 -11 5 -15 3 -10 -5 5 -8 2 -9 -10 -5
-9 4 -15 3 -12 -1 3 -5 -15 -18 -39 -30 -49 -24 -62 -22 -17 2 15 8 23 15 17
16 -15 0 -66 -36 -60 -42 3 -3 -1 -8 -10 -12 -10 -4 -14 -2 -9 5 4 7 -3 6 -17
-2 -42 -22 -149 -91 -149 -95 0 -3 5 -2 12 2 7 4 8 3 4 -4 -4 -6 -14 -8 -23
-5 -12 5 -14 3 -8 -7 6 -9 4 -11 -5 -5 -9 6 -25 -4 -48 -31 -19 -21 -29 -30
-21 -19 13 19 13 19 -6 6 -11 -8 -36 -31 -55 -51 -19 -20 -30 -29 -25 -20 6 8
-12 -9 -40 -38 -27 -29 -58 -55 -68 -56 -21 -3 -168 -146 -161 -157 3 -5 -10
-23 -28 -42 -30 -30 -31 -30 -8 -2 l25 30 -32 -29 c-18 -16 -30 -32 -28 -36 3
-5 -3 -16 -13 -27 -9 -10 -12 -12 -7 -3 9 13 8 13 -7 1 -10 -7 -16 -17 -13
-21 3 -4 -3 -16 -13 -27 -9 -10 -12 -12 -7 -3 9 13 8 13 -7 2 -9 -8 -15 -19
-13 -25 3 -7 -7 -25 -21 -42 -15 -16 -23 -24 -19 -16 5 9 4 12 -3 7 -6 -4 -9
-13 -6 -20 3 -8 0 -17 -7 -22 -8 -5 -10 -3 -4 6 5 8 4 11 -3 6 -6 -4 -9 -13
-6 -20 3 -8 0 -17 -7 -22 -8 -5 -10 -3 -4 6 5 8 4 11 -3 6 -6 -4 -9 -13 -6
-20 3 -8 0 -17 -7 -22 -8 -5 -10 -3 -4 6 5 8 4 11 -3 6 -6 -4 -9 -12 -6 -19 2
-7 -3 -21 -12 -32 -8 -11 -12 -14 -8 -6 5 9 3 12 -5 7 -6 -4 -9 -11 -6 -16 8
-13 -24 -72 -34 -65 -5 3 -12 -2 -15 -11 -3 -8 -2 -12 4 -9 6 3 7 -1 4 -10 -4
-9 -9 -13 -12 -10 -6 6 -42 -45 -42 -60 1 -5 8 2 16 18 29 53 23 26 -8 -37
-17 -36 -36 -62 -41 -59 -6 3 -7 1 -3 -6 8 -13 -2 -53 -12 -47 -4 2 -8 -6 -8
-17 -1 -12 -22 -80 -46 -152 -25 -71 -51 -159 -58 -195 -7 -36 -19 -69 -27
-73 -7 -4 -13 -16 -12 -25 0 -14 2 -13 9 3 13 30 11 10 -6 -90 -17 -96 -34
-534 -22 -542 5 -2 8 -21 8 -43 0 -31 23 -185 45 -298 4 -22 4 -24 -4 -7 -8
17 -10 17 -10 3 -1 -9 5 -21 12 -25 7 -4 25 -51 40 -103 42 -143 41 -137 27
-120 -10 13 -11 12 -6 -3 3 -10 6 -21 6 -23 0 -3 4 -3 8 0 5 3 23 -32 41 -77
18 -45 60 -133 92 -195 32 -62 54 -110 49 -107 -6 3 -7 -1 -4 -9 3 -9 10 -14
15 -11 10 7 32 -32 24 -45 -3 -5 0 -12 6 -16 8 -4 9 -3 5 4 -4 7 -5 12 -3 12
10 0 57 -81 52 -90 -3 -5 0 -12 6 -16 8 -5 9 -3 4 7 -8 12 -6 12 9 0 9 -8 15
-20 12 -27 -3 -7 0 -16 6 -20 7 -5 8 -2 3 6 -6 9 -4 11 4 6 7 -5 10 -14 7 -22
-3 -8 25 -45 72 -91 42 -43 59 -62 37 -43 l-40 35 40 -45 c82 -93 142 -153
210 -213 51 -44 60 -50 35 -21 l-35 39 37 -34 c21 -19 38 -40 38 -46 0 -5 10
-16 22 -24 l23 -14 -20 24 c-14 16 -8 14 23 -10 23 -18 42 -35 42 -38 0 -4
-10 2 -22 13 -12 10 -18 14 -14 7 3 -7 21 -22 39 -35 18 -12 28 -16 22 -7 -5
8 1 3 15 -12 38 -41 253 -178 236 -151 -6 9 -2 10 18 0 15 -6 24 -13 21 -16
-6 -6 26 -31 39 -32 6 0 1 7 -10 15 -15 12 -11 12 18 -1 20 -10 35 -21 32 -26
-3 -4 3 -5 12 -1 12 4 15 3 10 -5 -5 -8 -1 -10 10 -5 11 4 15 3 11 -4 -5 -7 0
-9 12 -6 11 3 27 -3 39 -15 11 -11 23 -18 26 -15 9 9 96 -29 89 -40 -3 -6 -1
-7 6 -3 14 9 82 -12 96 -29 12 -14 123 -50 131 -42 3 3 -18 10 -46 17 -28 7
-49 14 -47 17 9 8 102 -20 110 -34 4 -7 16 -13 25 -12 14 0 14 2 -3 9 -14 7
-8 8 20 3 22 -3 44 -12 48 -19 4 -8 16 -14 25 -13 14 0 13 2 -3 9 -24 10 -1
13 33 3 18 -4 20 -8 10 -14 -9 -6 -7 -9 10 -9 12 0 22 5 22 12 0 6 7 4 18 -5
10 -10 27 -17 38 -17 16 0 17 2 4 10 -13 8 -12 10 3 10 10 0 20 -7 23 -15 7
-17 69 -21 79 -5 4 7 14 5 28 -5 17 -12 55 -15 185 -15 105 0 161 4 157 10 -3
6 1 7 9 4 9 -3 16 -1 16 5 0 6 5 11 11 11 5 0 7 -5 4 -10 -4 -6 10 -10 34 -10
23 0 43 6 48 14 4 7 27 16 51 19 24 3 40 1 36 -4 -3 -5 5 -9 18 -9 17 0 19 3
9 9 -10 6 -4 11 20 16 19 3 42 9 53 12 12 3 16 1 12 -6 -4 -7 0 -11 11 -10 21
1 63 17 48 18 -5 1 -3 5 5 11 9 6 17 5 22 -3 6 -9 10 -9 17 2 5 8 35 22 68 32
66 21 85 23 63 8 -12 -9 -12 -10 3 -5 10 3 23 6 28 6 5 0 9 6 9 14 0 7 9 16
20 19 11 3 18 1 14 -4 -3 -5 -1 -9 5 -9 5 0 11 5 13 11 2 6 18 17 36 25 22 9
30 9 26 2 -5 -8 -2 -9 10 -5 10 4 20 7 22 7 3 0 3 4 0 9 -8 12 50 35 65 25 8
-5 9 -3 4 6 -6 10 -4 12 9 7 11 -5 15 -3 10 5 -5 8 -2 9 10 5 9 -4 15 -3 12 2
-3 4 6 13 20 20 14 6 23 7 19 1 -3 -6 1 -7 9 -4 9 3 14 10 11 14 -3 4 2 11 11
14 10 4 13 2 8 -6 -9 -15 126 58 146 79 8 9 9 13 2 9 -6 -4 -12 -5 -12 -2 0 3
10 10 21 17 16 8 20 8 14 -1 -21 -33 144 86 200 144 22 23 31 31 20 17 -57
-71 78 57 186 176 67 73 124 133 127 133 3 0 -11 -17 -31 -38 -20 -21 -37 -41
-37 -45 0 -4 17 12 38 35 20 22 36 46 34 53 -1 6 8 20 20 31 l23 19 -20 -25
-20 -25 22 18 c12 11 20 24 17 31 -3 7 6 21 18 32 l23 19 -20 -25 -20 -25 22
18 c12 11 20 24 18 30 -3 7 7 26 21 42 15 17 23 24 19 16 -6 -9 -4 -12 4 -7 6
4 9 11 6 16 -5 8 62 120 72 120 2 0 1 -5 -3 -12 -4 -7 -3 -8 4 -4 6 4 9 12 6
19 -2 7 3 21 12 32 8 11 12 14 8 6 -4 -9 -3 -12 4 -7 6 4 8 14 5 23 -5 12 -3
14 7 8 8 -5 11 -4 6 3 -9 15 42 115 54 107 6 -4 7 1 3 11 -5 13 -3 15 7 9 9
-6 11 -4 5 4 -8 14 33 113 44 107 3 -2 7 6 8 17 1 12 24 87 52 168 92 267 127
505 118 813 -7 262 -42 458 -123 688 -20 57 -37 113 -38 125 0 11 -4 19 -7 17
-11 -6 -32 54 -23 67 4 7 3 10 -3 6 -12 -8 -46 61 -37 75 5 7 2 8 -6 3 -10 -6
-12 -4 -7 9 5 11 3 15 -5 10 -8 -5 -9 -2 -5 10 5 11 3 15 -5 10 -8 -5 -9 -2
-5 10 5 11 3 15 -5 10 -8 -5 -9 -2 -5 10 4 10 3 15 -3 11 -11 -7 -43 52 -35
65 3 5 0 12 -6 16 -8 5 -10 2 -5 -7 4 -8 0 -5 -8 6 -9 11 -14 25 -12 32 3 7 0
15 -6 19 -7 5 -8 2 -3 -6 6 -9 4 -11 -4 -6 -7 5 -10 14 -7 22 3 7 0 16 -6 20
-7 5 -8 2 -3 -6 6 -9 4 -11 -4 -6 -7 5 -10 14 -7 22 3 7 0 16 -6 20 -7 5 -8 2
-3 -6 6 -9 4 -11 -4 -6 -7 5 -10 14 -7 22 3 7 0 16 -6 20 -7 5 -8 2 -3 -7 4
-8 -4 0 -19 16 -14 17 -24 35 -21 42 2 6 -4 17 -13 25 -15 11 -16 11 -7 -2 6
-9 2 -7 -7 3 -10 11 -16 23 -13 27 3 4 -3 14 -13 21 -16 13 -16 13 -2 -6 14
-19 14 -19 -3 -6 -10 8 -16 20 -13 26 2 7 -10 26 -27 41 l-32 29 30 -35 30
-35 -38 34 c-36 34 -50 59 -24 45 6 -4 -31 37 -83 90 -52 53 -97 96 -100 96
-2 0 36 -41 85 -92 l90 -92 -105 98 c-58 54 -123 117 -145 140 -22 23 -33 33
-25 21 8 -11 -6 1 -30 26 -47 47 -157 127 -130 94 15 -18 14 -18 -12 -1 -26
17 -41 35 -16 20 6 -4 8 -3 5 4 -7 10 -157 101 -189 114 -12 5 -17 4 -13 -3 4
-6 -24 5 -62 24 -227 114 -516 198 -785 227 -114 12 -402 11 -503 -1z m147
-239 c32 0 58 4 58 10 0 6 22 10 49 10 28 0 53 -4 56 -10 3 -5 32 -9 63 -9 47
1 52 3 27 9 l-30 8 32 1 c38 1 65 -8 57 -20 -3 -5 12 -9 33 -9 28 0 34 3 23
10 -13 8 -13 10 2 10 9 0 23 -7 32 -15 8 -8 23 -15 33 -15 15 0 16 2 3 10 -10
6 -2 8 25 4 22 -4 45 -13 51 -20 6 -8 17 -14 25 -14 11 0 11 2 -1 11 -11 8 -8
9 14 4 15 -3 42 -9 58 -12 16 -3 32 -12 35 -19 3 -8 12 -14 20 -14 8 0 12 4 8
10 -13 21 201 -55 358 -128 51 -24 86 -46 82 -52 -6 -10 -5 -11 33 -15 13 -1
29 -8 35 -15 10 -10 7 -10 -10 -1 -13 6 -23 9 -23 7 0 -3 14 -13 31 -22 18 -9
28 -11 24 -4 -6 9 -2 9 14 1 11 -7 21 -14 21 -17 0 -3 -5 -2 -12 2 -7 5 -8 3
-4 -5 5 -7 14 -10 22 -7 7 3 16 0 20 -6 5 -7 2 -8 -6 -3 -8 5 -11 4 -7 -2 4
-6 24 -21 44 -33 30 -18 34 -18 22 -4 -10 13 -5 12 19 -5 17 -12 32 -25 32
-28 0 -3 -8 1 -17 8 -16 13 -17 12 -4 -4 8 -10 20 -16 27 -13 7 3 18 -3 26
-12 12 -16 11 -16 -7 -2 -19 14 -19 14 -6 -3 7 -9 19 -16 26 -15 31 7 329
-283 323 -313 -2 -7 2 -13 7 -14 19 -1 36 -17 32 -29 -3 -7 7 -25 22 -42 14
-16 22 -23 16 -14 -9 13 -8 13 6 2 10 -7 15 -21 12 -32 -3 -12 0 -20 6 -20 7
0 9 5 6 10 -3 6 -4 10 -2 10 11 0 57 -82 51 -92 -4 -7 -3 -8 4 -4 6 3 16 -3
22 -15 8 -15 8 -19 1 -15 -7 5 -9 1 -5 -8 3 -9 10 -14 15 -11 11 8 41 -53 33
-67 -4 -7 -3 -8 4 -4 14 8 35 -30 28 -50 -3 -8 -2 -12 4 -9 12 8 33 -33 26
-51 -3 -8 -2 -13 2 -10 5 3 16 -11 25 -30 21 -42 22 -59 2 -24 -17 30 -20 21
-4 -14 7 -14 15 -23 20 -21 7 5 70 -157 68 -178 0 -7 -7 4 -14 23 -17 44 -19
30 -3 -22 7 -23 14 -34 19 -27 7 13 54 -177 63 -256 4 -37 3 -42 -3 -20 l-9
30 -1 -27 c0 -16 6 -31 15 -36 26 -14 32 -373 10 -542 -26 -194 -90 -446 -107
-419 -6 9 -9 10 -9 2 0 -6 -3 -20 -6 -30 -5 -15 -4 -15 5 -3 16 23 13 8 -10
-54 -12 -32 -26 -53 -32 -49 -6 4 -7 1 -3 -6 9 -14 -13 -73 -24 -66 -4 3 -11
-2 -14 -11 -3 -9 -2 -12 4 -9 6 4 -2 -18 -17 -49 -15 -30 -29 -54 -31 -52 -2
3 1 14 8 25 6 12 8 21 6 21 -3 0 -14 -18 -25 -41 -16 -33 -17 -38 -4 -27 15
12 15 11 4 -10 -7 -12 -16 -20 -21 -17 -6 3 -8 0 -5 -7 5 -13 -91 -168 -123
-198 -8 -8 -5 0 7 17 12 18 20 33 17 33 -10 0 -71 -95 -68 -107 1 -6 -59 -74
-135 -150 -108 -109 -115 -115 -33 -28 90 95 86 92 -30 -24 -74 -75 -140 -135
-146 -133 -7 1 -24 -12 -39 -30 -15 -18 -24 -26 -19 -19 4 9 -6 5 -24 -8 -30
-21 -47 -44 -19 -25 7 5 3 0 -10 -11 -12 -11 -37 -29 -55 -38 -33 -19 -28 -13
27 29 20 16 9 10 -97 -54 -55 -32 -82 -55 -38 -32 11 6 20 8 20 6 0 -3 -14
-13 -31 -22 -17 -8 -28 -11 -24 -5 4 8 -2 8 -19 0 -14 -7 -23 -15 -21 -19 5
-8 -140 -78 -240 -115 -90 -33 -263 -79 -385 -102 -74 -13 -149 -17 -340 -17
-274 0 -367 12 -596 78 -130 38 -297 104 -290 115 3 4 -20 19 -50 34 -66 33
-72 27 -6 -7 26 -14 43 -25 39 -26 -21 -1 -107 52 -101 62 5 8 2 9 -10 5 -10
-4 -15 -3 -11 3 3 5 -13 19 -36 30 -22 12 -38 16 -34 10 6 -9 2 -9 -14 -1 -11
7 -21 14 -21 17 0 3 6 2 13 -1 6 -4 1 3 -13 14 -14 11 -30 19 -37 16 -7 -2
-15 1 -19 7 -5 7 -2 8 7 4 8 -4 3 2 -10 14 -13 11 -30 19 -37 16 -7 -3 -18 3
-26 12 -12 15 -11 16 5 3 9 -7 17 -11 17 -8 0 2 -17 17 -37 33 -35 25 -36 26
-18 4 29 -35 -62 38 -173 138 -51 47 -91 90 -88 97 2 7 -12 28 -32 46 l-37 34
35 -40 35 -40 -43 40 c-23 22 -41 44 -38 50 2 6 -12 29 -31 51 l-35 39 32 -45
32 -45 -31 35 c-56 62 -132 180 -125 192 4 7 3 8 -4 4 -13 -8 -36 30 -27 44 4
6 1 9 -7 8 -7 -2 -12 5 -12 14 1 10 -3 15 -9 11 -6 -4 -8 0 -4 11 5 11 3 15
-5 10 -8 -5 -9 -2 -5 10 5 11 3 15 -5 10 -8 -5 -9 -2 -5 10 4 10 3 15 -3 11
-12 -8 -53 73 -46 91 3 8 2 13 -3 10 -13 -8 -77 150 -117 288 -66 229 -78 322
-78 596 0 274 12 367 78 596 40 138 104 296 117 288 5 -3 6 2 3 10 -7 18 34
99 46 91 6 -4 7 1 3 11 -4 12 -3 15 5 10 8 -5 10 -1 5 10 -4 12 -3 15 5 10 8
-5 10 -1 5 10 -4 11 -2 15 4 11 6 -4 10 1 9 11 0 9 4 16 11 15 8 -2 10 4 6 14
-4 10 -2 14 4 10 6 -4 10 1 9 11 0 9 5 16 12 14 8 -1 11 2 7 8 -7 11 73 131
126 190 l31 35 -32 -45 -32 -45 35 39 c19 22 33 44 31 50 -2 6 36 52 84 102
48 50 69 70 47 45 l-40 -44 47 39 c26 21 47 44 48 49 0 14 59 70 125 120 l50
38 -45 -43 -45 -42 63 47 c34 25 62 49 62 52 0 3 -7 0 -15 -7 -8 -7 -15 -10
-15 -7 0 3 15 16 33 28 25 19 29 19 17 4 -14 -17 -14 -18 8 -6 12 7 20 16 17
21 -3 5 0 12 6 16 8 4 9 3 5 -4 -11 -18 10 -14 25 5 12 14 12 16 0 8 -9 -5
-12 -4 -7 3 4 6 13 9 20 6 8 -3 17 0 22 7 4 8 3 10 -4 5 -7 -4 -12 -5 -12 -2
0 3 10 10 21 17 17 9 20 8 14 -1 -4 -7 15 0 43 15 28 15 49 32 46 36 -7 12 95
61 113 55 8 -3 12 -2 9 3 -3 5 31 25 77 44 107 45 131 52 123 38 -12 -18 12
-12 31 8 10 10 30 21 45 25 14 3 34 9 45 12 15 5 15 4 3 -5 -13 -9 -13 -11 1
-11 9 0 19 7 23 15 3 8 11 15 18 15 9 0 9 -3 -2 -11 -11 -7 -4 -8 25 -3 48 8
57 14 24 15 l-24 1 25 8 c14 4 32 8 40 9 13 1 13 0 0 -9 -13 -8 -12 -10 3 -10
10 0 20 7 23 15 4 8 16 15 28 14 20 0 20 -1 1 -9 -15 -7 -16 -9 -4 -9 9 -1 22
6 29 14 7 8 18 15 24 15 6 0 4 -5 -4 -10 -12 -8 -9 -10 13 -10 15 0 30 7 33
15 4 8 10 15 16 15 5 0 6 -4 3 -10 -4 -6 8 -10 30 -10 23 0 38 5 42 16 4 11 9
12 16 5 6 -6 37 -11 69 -11z"/>
<path d="M1313 3612 c-10 -6 1208 -6 2082 1 187 1 -202 3 -865 4 -663 2 -1210
-1 -1217 -5z"/>
<path d="M3738 3605 c-2 -3 -558 -5 -1234 -5 l-1229 -1 -36 -32 c-19 -18 -26
-25 -15 -17 19 13 18 12 -1 -11 -13 -14 -23 -32 -23 -41 0 -19 26 -42 38 -34
6 3 16 -2 23 -12 13 -15 12 -16 -3 -3 -10 7 -18 11 -18 8 0 -3 15 -16 33 -28
27 -19 30 -20 17 -4 -13 16 -10 15 18 -4 17 -12 32 -25 32 -28 0 -3 -7 0 -15
7 -8 7 -15 10 -15 7 0 -11 100 -78 109 -73 5 3 15 -2 22 -12 13 -15 12 -16 -3
-3 -10 7 -18 11 -18 8 0 -3 15 -16 33 -28 27 -19 30 -20 17 -4 -13 16 -10 15
17 -4 18 -12 33 -25 33 -28 0 -3 -8 0 -17 7 -10 7 -2 -2 17 -19 19 -17 40 -29
47 -27 7 3 15 0 19 -6 5 -7 2 -8 -7 -3 -28 16 15 -21 71 -61 30 -21 48 -30 40
-19 -13 16 -10 16 18 -4 17 -12 32 -25 32 -28 0 -3 -7 0 -15 7 -8 7 -15 10
-15 7 0 -3 15 -16 33 -28 27 -19 30 -20 17 -4 -13 16 -10 15 18 -4 17 -12 32
-25 32 -28 0 -3 -8 1 -17 8 -11 9 -14 10 -9 2 4 -7 28 -27 54 -45 29 -19 41
-24 32 -13 -12 16 -9 15 18 -4 17 -12 32 -25 32 -28 0 -3 -8 1 -17 8 -9 8 -14
9 -11 4 4 -6 28 -26 55 -45 26 -19 41 -26 33 -15 -13 16 -10 15 17 -4 18 -12
33 -25 33 -28 0 -3 -8 1 -17 8 -16 13 -17 12 -4 -4 8 -10 24 -23 35 -29 20
-11 20 -10 6 7 -12 15 -8 15 17 -4 18 -12 33 -25 33 -28 0 -3 -8 1 -17 8 -11
9 -14 10 -9 2 4 -7 28 -27 54 -45 29 -19 41 -24 32 -13 -12 16 -9 15 18 -4 17
-12 32 -25 32 -28 0 -3 -7 0 -15 7 -8 7 -15 10 -15 7 0 -11 100 -78 109 -73 5
3 15 -2 22 -12 13 -15 12 -16 -3 -3 -10 7 -18 10 -18 5 0 -5 12 -16 28 -25 15
-9 54 -36 87 -60 33 -24 53 -34 45 -24 -12 16 -9 15 18 -4 17 -12 32 -25 32
-28 0 -3 -8 1 -17 8 -15 11 -16 11 -6 -1 16 -17 54 -21 73 -6 13 10 13 9 1 -7
-8 -10 -21 -15 -30 -12 -12 5 -13 3 -5 -5 9 -9 29 1 83 40 39 28 71 54 71 57
0 3 -7 0 -15 -7 -8 -7 -15 -10 -15 -7 0 3 15 16 33 28 27 19 30 20 17 4 -13
-16 -10 -15 18 4 17 12 32 25 32 28 0 3 -7 0 -15 -7 -8 -7 -15 -10 -15 -7 0 3
15 16 33 28 26 19 29 20 17 4 -9 -11 3 -6 32 13 26 18 50 38 54 45 5 8 2 7 -9
-2 -9 -7 -17 -11 -17 -8 0 3 15 16 33 28 26 19 29 20 17 4 -15 -19 87 50 131
88 14 12 18 18 10 12 -10 -7 -13 -7 -9 0 4 6 28 25 55 44 l48 33 -35 -32 c-32
-30 -31 -29 20 6 105 73 270 196 270 201 0 3 -7 0 -15 -7 -8 -7 -15 -10 -15
-7 0 3 15 16 33 28 26 19 29 20 17 4 -9 -11 4 -6 33 14 26 17 47 34 47 37 0 3
-5 2 -12 -2 -7 -4 -8 -3 -4 5 4 6 12 9 17 5 9 -5 149 92 149 103 0 3 -8 -1
-17 -8 -16 -13 -17 -12 -4 4 8 10 20 16 27 13 7 -3 18 3 26 12 12 15 11 16 -4
3 -10 -7 -18 -11 -18 -8 0 3 15 16 33 28 27 19 30 20 17 4 -13 -16 -10 -15 18
4 17 12 32 25 32 28 0 3 -8 -1 -17 -8 -16 -13 -17 -12 -4 4 8 10 20 16 27 13
7 -3 18 3 26 12 12 15 11 16 -4 3 -10 -7 -18 -11 -18 -8 0 3 15 16 33 28 25
19 29 19 17 4 -14 -17 -14 -18 6 -7 11 6 27 19 35 29 13 17 13 17 -6 3 -19
-14 -19 -14 -6 3 8 10 20 16 27 13 8 -3 13 0 11 6 -1 7 3 12 10 13 6 0 15 4
20 8 4 5 2 7 -6 5 -7 -1 -21 11 -30 29 -9 17 -29 39 -45 49 -19 11 -26 12 -21
4 6 -10 4 -12 -9 -7 -10 4 -21 7 -24 7 -4 0 0 5 8 10 8 5 10 10 4 10 -6 0 -13
-2 -16 -5z"/>
<path d="M3860 3397 c-14 -12 -19 -17 -11 -12 11 7 13 7 7 -2 -4 -7 -16 -18
-28 -24 -16 -9 -19 -8 -12 2 4 7 -7 3 -24 -10 -18 -12 -32 -25 -32 -28 0 -3 8
1 18 8 15 13 16 12 3 -4 -8 -10 -20 -16 -27 -13 -7 3 -18 -3 -26 -12 -12 -15
-11 -16 5 -3 9 7 17 11 17 8 0 -3 -15 -16 -32 -28 -26 -19 -30 -19 -18 -4 14
17 14 18 -7 7 -12 -7 -25 -17 -29 -24 -5 -7 -3 -8 7 -3 12 8 12 6 0 -8 -15
-18 -26 -23 -16 -7 10 17 -12 11 -26 -7 -12 -14 -12 -16 0 -8 9 5 12 4 7 -3
-4 -6 -12 -9 -19 -7 -7 3 -26 -8 -42 -23 -17 -15 -24 -22 -15 -17 13 9 13 8 2
-7 -8 -9 -19 -15 -25 -12 -7 2 -23 -6 -37 -18 -14 -13 -19 -18 -10 -13 13 9
13 8 1 -8 -8 -10 -20 -16 -27 -13 -7 3 -18 -3 -26 -12 -12 -15 -11 -16 5 -3 9
7 17 11 17 8 0 -3 -15 -16 -32 -28 -26 -19 -30 -19 -18 -4 14 17 14 18 -6 7
-11 -6 -27 -19 -35 -29 -13 -16 -12 -17 4 -4 9 7 17 11 17 8 0 -3 -15 -16 -32
-28 -19 -13 -29 -17 -23 -8 6 8 -1 3 -15 -11 -14 -14 -20 -19 -15 -11 6 9 -4
5 -22 -8 -18 -12 -33 -25 -33 -28 0 -3 8 1 18 8 15 13 16 12 3 -3 -7 -10 -17
-15 -22 -12 -9 5 -109 -62 -109 -73 0 -3 7 0 15 7 8 7 15 10 15 7 0 -3 -15
-16 -32 -28 -28 -19 -31 -20 -18 -4 13 16 10 15 -17 -4 -18 -12 -33 -25 -33
-28 0 -3 8 1 18 8 15 13 16 12 3 -4 -8 -10 -20 -16 -26 -13 -8 3 -12 -5 -11
-22 1 -27 23 -48 116 -112 28 -19 32 -20 20 -5 -13 16 -10 15 18 -4 17 -12 32
-25 32 -28 0 -3 -8 1 -17 8 -9 8 -14 9 -11 4 4 -6 28 -26 54 -45 26 -18 44
-28 40 -21 -7 10 -4 11 12 2 12 -6 24 -17 28 -24 5 -8 2 -7 -9 2 -9 7 -17 11
-17 8 0 -3 15 -16 33 -28 18 -13 28 -17 22 -8 -5 8 -2 6 8 -4 15 -17 21 -18
40 -8 13 7 14 9 4 6 -10 -2 -16 -1 -13 4 3 5 15 11 26 14 11 3 18 1 14 -4 -3
-5 0 -9 5 -9 6 0 11 8 11 18 0 14 2 15 10 2 8 -13 11 -13 22 2 15 19 65 37 54
19 -4 -6 0 -11 9 -11 9 0 14 4 11 9 -7 10 17 21 42 20 14 0 13 -2 -3 -9 -18
-8 -17 -9 8 -9 16 -1 26 3 23 8 -3 5 15 12 40 16 35 5 50 3 63 -9 10 -9 28
-16 42 -15 l24 1 -25 8 -25 8 28 1 c16 1 30 -5 33 -14 4 -8 14 -15 23 -15 14
0 14 2 1 11 -11 8 -7 9 18 4 l32 -7 0 412 c0 378 -1 412 -16 406 -14 -5 -15
-4 -4 9 18 22 9 18 -20 -8z"/>
<path d="M1159 3385 c-1 -8 -2 -267 -3 -574 0 -308 -4 -563 -8 -567 -5 -4 -7
-19 -7 -33 1 -25 2 -25 9 4 l8 30 1 -31 c1 -43 24 -49 58 -17 16 14 20 20 11
13 -10 -7 -18 -10 -18 -7 0 3 15 16 33 28 27 19 30 20 17 4 -13 -16 -10 -15
18 4 17 12 32 25 32 28 0 3 -8 -1 -17 -8 -9 -8 -14 -9 -11 -4 4 6 28 25 55 44
l48 33 -35 -32 -35 -32 50 33 c28 18 68 51 90 73 21 23 33 32 25 22 -14 -18
-14 -19 6 -8 11 6 27 19 35 29 13 16 12 17 -3 4 -10 -7 -18 -11 -18 -8 0 3 15
16 33 28 26 19 29 20 17 4 -8 -10 20 5 63 35 43 30 84 61 90 70 11 13 10 13
-5 1 -10 -7 -18 -11 -18 -8 0 3 15 16 33 28 26 19 29 20 17 4 -9 -11 3 -6 32
13 26 18 50 38 54 45 5 8 2 7 -9 -2 -9 -7 -17 -11 -17 -8 0 3 15 16 33 28 26
19 29 20 17 4 -9 -11 3 -6 32 13 26 18 50 38 54 44 4 6 -10 -2 -31 -18 -22
-16 -36 -24 -33 -19 4 6 28 26 55 45 26 19 41 26 33 15 -14 -17 -14 -18 6 -7
11 6 27 19 35 29 12 16 12 17 -1 8 -9 -5 -7 -2 3 8 19 17 19 17 0 35 -10 9
-12 13 -4 7 11 -7 13 -7 7 2 -4 7 -28 27 -54 45 -29 19 -41 24 -32 13 12 -16
9 -15 -17 4 -18 12 -33 25 -33 28 0 3 7 0 15 -7 8 -7 15 -10 15 -7 0 3 -15 16
-32 28 -29 20 -31 21 -19 4 8 -11 -1 -4 -20 16 -40 43 -114 96 -89 64 13 -16
10 -15 -17 4 -18 12 -33 25 -33 28 0 3 8 -1 17 -8 11 -9 14 -10 9 -2 -4 7 -28
27 -54 45 -29 19 -41 24 -32 13 12 -16 9 -15 -17 4 -18 12 -33 25 -33 28 0 3
8 -1 18 -8 14 -10 15 -10 5 0 -28 32 -378 279 -389 274 -6 -2 -15 0 -19 6 -9
16 -25 13 -26 -4z"/>
<path d="M2089 2743 c-1 -5 -1 -12 0 -17 1 -5 -5 -6 -13 -3 -8 3 -20 -2 -28
-11 -12 -16 -11 -16 6 -2 11 8 17 10 14 5 -4 -6 -28 -25 -55 -44 l-48 -33 35
32 35 32 -47 -31 c-26 -17 -50 -37 -54 -44 -5 -7 0 -6 12 3 18 14 18 14 5 -3
-8 -10 -20 -16 -27 -13 -7 3 -18 -3 -26 -12 -12 -15 -11 -16 5 -3 9 7 17 11
17 8 0 -3 -15 -16 -32 -28 -28 -19 -31 -20 -18 -4 13 16 10 15 -17 -4 -18 -12
-33 -25 -33 -28 0 -3 8 1 18 8 15 13 16 12 3 -3 -7 -10 -17 -15 -22 -12 -9 5
-109 -62 -109 -73 0 -3 7 0 15 7 8 7 15 10 15 7 0 -3 -15 -16 -32 -28 -26 -19
-30 -19 -18 -4 14 17 14 18 -6 7 -11 -6 -27 -19 -35 -29 -13 -17 -13 -17 5 -3
11 8 17 10 14 5 -4 -6 -28 -25 -55 -44 l-48 -33 35 32 c33 30 32 30 -20 -6
-54 -37 -101 -76 -71 -59 9 5 12 4 7 -3 -4 -6 -12 -9 -19 -7 -7 3 -26 -8 -42
-23 -17 -15 -25 -23 -18 -18 7 5 13 6 13 3 0 -3 -15 -16 -32 -28 -26 -19 -30
-19 -18 -4 14 17 14 18 -7 7 -12 -7 -25 -17 -29 -24 -4 -7 -3 -8 4 -4 18 11
14 0 -5 -15 -11 -10 -14 -10 -9 -1 4 6 4 12 1 12 -8 0 -115 -81 -115 -87 0 -3
8 1 18 8 15 13 16 12 3 -4 -8 -10 -20 -16 -28 -13 -7 3 -13 -1 -13 -10 0 -8
-5 -12 -11 -9 -6 4 -5 -2 2 -13 7 -12 15 -19 18 -17 2 3 10 -4 18 -15 8 -12
20 -17 30 -13 11 4 14 2 9 -5 -5 -8 221 -11 866 -12 l873 0 18 69 c22 84 83
215 97 206 5 -3 7 0 4 8 -3 8 3 20 13 28 17 13 17 13 3 -6 -14 -18 -14 -19 2
-7 9 8 15 19 12 25 -2 7 22 37 53 67 l58 55 -55 -59 -55 -60 65 59 c36 32 63
64 61 69 -2 6 -4 16 -4 22 0 6 -10 17 -21 24 -18 11 -20 11 -11 -1 6 -8 -1 -3
-15 11 -14 14 -20 19 -15 11 6 -9 -4 -5 -22 8 -18 12 -33 25 -33 28 0 3 8 -1
17 -8 9 -8 14 -9 10 -2 -12 20 -167 124 -176 119 -5 -3 -15 2 -22 12 -13 15
-12 16 4 3 9 -7 17 -11 17 -8 0 2 -16 17 -37 33 l-36 28 -35 -40 c-19 -21 -29
-30 -21 -20 13 18 12 18 -7 8 -11 -6 -27 -19 -35 -29 -13 -17 -13 -17 6 -3 19
14 19 14 6 -2 -7 -10 -17 -15 -22 -12 -9 5 -109 -62 -109 -73 0 -3 7 0 15 7 8
7 15 10 15 7 0 -3 -15 -16 -32 -28 -28 -19 -31 -20 -18 -4 13 16 10 15 -17 -4
-18 -12 -33 -25 -33 -28 0 -3 7 0 15 7 8 7 15 10 15 7 0 -3 -15 -16 -32 -28
-28 -19 -31 -20 -18 -4 8 11 -7 4 -33 -15 -27 -19 -51 -39 -55 -45 -3 -5 3 -3
14 5 14 11 16 11 7 0 -17 -19 -54 -21 -81 -4 -12 8 -26 12 -31 10 -5 -3 -15 2
-22 12 -13 15 -12 16 4 3 9 -7 17 -11 17 -8 0 3 -15 16 -32 28 -19 13 -29 17
-23 8 6 -8 -2 -2 -16 15 -14 16 -31 26 -36 23 -6 -4 -17 1 -24 11 -13 16 -12
16 6 2 20 -15 20 -14 1 8 -20 23 -42 31 -30 10 4 -8 3 -10 -2 -5 -5 5 -9 13
-9 17 0 5 -27 28 -60 51 -33 24 -53 34 -45 24 12 -16 9 -15 -17 4 -18 12 -33
25 -33 28 0 3 8 0 18 -7 9 -7 2 1 -17 18 -20 18 -40 28 -49 25 -10 -4 -13 -2
-8 5 4 7 5 12 2 12 -3 0 -7 -3 -7 -7z"/>
<path d="M3699 2510 c-105 -8 -186 -29 -264 -66 -46 -23 -48 -23 -25 -4 l25
22 -33 -19 c-19 -10 -39 -25 -45 -33 -11 -13 -10 -13 8 0 19 14 19 14 6 -3 -8
-10 -20 -16 -26 -13 -16 6 -110 -89 -110 -112 0 -9 -7 -17 -15 -17 -8 0 -15
-7 -15 -16 0 -27 -48 -119 -58 -112 -6 3 -7 1 -3 -5 4 -6 4 -23 0 -37 -5 -21
-9 -24 -16 -13 -7 9 -8 7 -4 -7 3 -11 1 -52 -4 -90 -6 -39 -11 -79 -11 -90 0
-39 22 -136 42 -188 11 -29 22 -63 24 -76 2 -13 11 -31 21 -40 15 -14 15 -13
-1 14 l-18 30 26 -30 c15 -16 25 -35 22 -41 -2 -7 8 -22 23 -35 l27 -24 -25
30 -25 30 28 -24 c15 -14 27 -29 27 -35 0 -6 10 -18 23 -25 62 -40 90 -54 84
-44 -4 6 19 2 50 -9 39 -14 95 -24 173 -28 l115 -7 -95 -3 c-93 -4 -93 -4 -25
-8 90 -4 192 8 155 19 -21 6 -21 7 -5 8 11 1 31 4 45 7 21 5 22 4 10 -6 -13
-10 -12 -11 3 -6 10 3 24 6 30 6 8 0 8 3 -1 8 -9 6 1 13 28 22 44 15 45 19 20
85 -11 29 -14 30 -71 9 -24 -8 -87 -18 -140 -21 -80 -5 -108 -2 -165 15 -38
12 -78 28 -89 37 -19 16 -19 16 5 5 24 -11 24 -10 5 5 -11 8 -25 13 -31 11
-16 -6 -88 70 -79 83 3 7 1 10 -6 9 -7 -2 -23 23 -37 57 -49 120 -39 303 24
427 28 55 121 161 134 153 5 -3 30 6 57 20 26 15 38 23 26 20 -34 -9 -28 1 7
14 23 7 29 7 24 -1 -5 -8 1 -9 17 -5 13 4 30 7 37 7 7 0 11 4 8 9 -8 12 19 21
57 20 30 -2 29 -2 -8 -9 -34 -6 -29 -7 30 -7 51 -1 62 1 40 7 -30 8 -30 8 -3
9 15 0 33 -6 42 -14 8 -8 21 -15 28 -15 10 0 9 3 -2 10 -24 15 5 12 50 -6 22
-9 38 -20 35 -24 -3 -4 2 -11 11 -14 8 -3 12 -2 9 4 -13 21 7 8 51 -32 41 -38
91 -110 65 -94 -7 4 -8 1 -5 -8 3 -9 10 -14 15 -11 9 6 29 -59 28 -90 -1 -13
-4 -10 -9 10 l-8 30 -1 -28 c-1 -17 5 -30 15 -34 14 -5 15 -17 10 -75 -8 -78
-29 -144 -45 -141 -5 2 -8 -3 -6 -10 5 -13 -10 -35 -40 -57 -11 -8 -6 1 10 20
l30 34 -32 -25 c-18 -13 -32 -30 -32 -37 -1 -9 -11 -12 -28 -10 -48 5 -50 36
-18 238 19 126 25 184 17 192 -16 16 -121 38 -183 38 -30 0 -79 -7 -107 -15
-29 -9 -58 -13 -64 -9 -7 5 -8 3 -3 -6 6 -10 4 -12 -8 -7 -10 4 -26 -2 -40
-16 -13 -12 -16 -17 -7 -11 34 24 43 25 15 0 -16 -14 -33 -26 -37 -27 -5 -1
-11 -2 -15 -3 -19 -3 -32 -18 -27 -30 3 -7 -3 -19 -13 -27 -16 -13 -17 -12 -4
4 7 9 11 17 7 17 -7 0 -56 -76 -56 -87 0 -4 7 2 15 13 14 18 15 17 4 -8 -7
-15 -15 -25 -19 -23 -5 3 -11 -2 -14 -11 -9 -24 -7 -31 5 -14 8 12 9 10 5 -10
-3 -14 -6 -32 -7 -40 0 -10 -3 -8 -9 5 -5 12 -6 -3 -3 -40 3 -44 2 -56 -6 -45
-8 11 -11 11 -11 2 0 -7 7 -15 15 -18 8 -4 15 -15 15 -26 0 -10 7 -32 15 -49
9 -16 13 -34 10 -38 -6 -10 63 -71 79 -71 5 0 1 7 -10 16 -18 14 -18 15 4 4
12 -6 22 -15 22 -20 0 -6 5 -10 11 -10 5 0 8 4 5 9 -4 5 9 6 29 1 19 -4 37 -5
40 -2 12 12 85 30 79 20 -8 -13 24 6 56 33 28 23 7 15 -25 -10 -11 -8 -2 4 20
27 39 42 60 57 34 25 -12 -15 -12 -16 3 -11 17 7 33 -16 23 -32 -3 -4 9 -13
25 -19 17 -5 30 -13 30 -16 0 -3 -6 -3 -12 1 -7 4 -9 3 -5 -1 4 -5 18 -10 30
-10 90 -5 92 -5 77 -16 -12 -9 -12 -10 3 -5 10 3 25 6 33 6 9 0 13 3 11 8 -3
4 19 19 49 33 61 29 70 28 22 -1 -18 -11 -27 -20 -20 -20 14 0 46 30 97 90 29
35 27 26 -5 -16 -8 -11 -1 -5 17 14 20 21 29 40 26 50 -4 10 -2 13 5 8 8 -5
10 -1 5 10 -5 13 -3 15 7 9 9 -5 11 -4 6 3 -4 6 -1 31 7 54 37 109 27 260 -23
357 -11 23 -18 46 -15 51 3 5 0 12 -6 16 -8 5 -9 3 -4 -6 6 -9 4 -11 -4 -6 -7
5 -10 14 -8 21 6 15 -73 93 -130 129 -47 28 -68 35 -37 11 18 -14 17 -15 -8
-4 -15 7 -25 16 -21 22 3 6 2 7 -4 4 -6 -4 -36 -1 -68 6 -47 9 -53 13 -34 18
30 9 17 9 -112 -1z m1 -410 l-35 -7 36 -2 c19 0 41 5 48 12 11 10 12 9 5 -3
-4 -8 -7 -27 -5 -42 1 -16 -1 -28 -6 -28 -4 0 -8 -21 -9 -48 -1 -72 -49 -153
-103 -174 -39 -14 -79 7 -90 49 -16 58 15 183 41 167 7 -5 8 -2 4 5 -9 14 22
53 35 45 5 -3 17 0 26 6 17 11 17 11 1 6 -10 -3 -18 -3 -18 0 0 9 45 23 75 22
29 -1 29 -1 -5 -8z"/>
<path d="M1753 2003 c236 -2 618 -2 850 0 232 1 40 2 -428 2 -467 0 -657 -1
-422 -2z"/>
</g>
</svg>
