<?xml version="1.0" standalone="no"?>
<!DOCTYPE svg PUBLIC "-//W3C//DTD SVG 20010904//EN"
 "http://www.w3.org/TR/2001/REC-SVG-20010904/DTD/svg10.dtd">
<svg version="1.0" xmlns="http://www.w3.org/2000/svg"
 width="650.000000pt" height="650.000000pt" viewBox="0 0 650.000000 650.000000"
 preserveAspectRatio="xMidYMid meet">
<metadata>
Created by potrace 1.16, written by Peter Selinger 2001-2019
</metadata>
<g transform="translate(0.000000,650.000000) scale(0.100000,-0.100000)"
fill="#000000" stroke="none">
<path d="M3045 4422 c-66 -23 -112 -52 -156 -99 -100 -104 -127 -214 -99 -401
5 -37 21 -150 35 -252 14 -102 37 -255 51 -340 25 -159 32 -199 84 -525 16
-104 42 -257 56 -340 14 -82 33 -197 42 -255 l17 -105 68 -3 c39 -2 74 2 82 8
7 6 15 34 19 63 4 28 29 187 56 352 27 165 63 386 80 490 17 105 42 258 55
340 52 319 88 594 89 690 1 84 -3 109 -23 158 -13 31 -27 57 -32 57 -5 0 -9 5
-9 11 0 23 -88 102 -148 131 -80 40 -188 48 -267 20z"/>
<path d="M3037 1846 c-81 -30 -147 -92 -187 -179 -58 -122 -34 -262 64 -363
72 -75 129 -99 236 -99 103 0 171 27 237 95 55 55 80 105 92 181 23 140 -34
257 -168 345 -39 26 -53 29 -140 31 -64 2 -108 -1 -134 -11z"/>
</g>
</svg>
