<?xml version="1.0" standalone="no"?>
<!DOCTYPE svg PUBLIC "-//W3C//DTD SVG 20010904//EN"
 "http://www.w3.org/TR/2001/REC-SVG-20010904/DTD/svg10.dtd">
<svg version="1.0" xmlns="http://www.w3.org/2000/svg"
 width="980.000000pt" height="966.000000pt" viewBox="0 0 980.000000 966.000000"
 preserveAspectRatio="xMidYMid meet">
<metadata>
Created by potrace 1.16, written by Peter Selinger 2001-2019
</metadata>
<g transform="translate(0.000000,966.000000) scale(0.100000,-0.100000)"
fill="#000000" stroke="none">
<path d="M4650 9639 c-312 -40 -660 -162 -940 -331 -388 -233 -699 -574 -916
-1003 -193 -383 -274 -718 -274 -1135 0 -1132 624 -2304 1516 -2845 196 -119
341 -177 529 -211 139 -25 526 -25 670 0 115 19 275 71 367 117 878 442 1525
1450 1660 2584 21 178 15 569 -11 742 -42 279 -110 492 -232 733 -137 269
-280 472 -464 655 -371 372 -878 620 -1408 690 -126 16 -386 18 -497 4z"/>
<path d="M2840 4323 c-644 -247 -943 -375 -1325 -568 -702 -355 -1064 -622
-1189 -880 -97 -198 -265 -756 -312 -1029 -21 -126 -15 -206 26 -318 239 -659
1517 -1208 3320 -1427 817 -99 1746 -119 2575 -56 1666 128 3055 574 3616
1162 204 214 274 402 239 648 -25 170 -162 650 -249 870 -72 181 -129 271
-241 385 -197 200 -478 374 -1095 680 -458 226 -695 329 -1168 506 l-279 104
-131 -123 c-214 -199 -386 -328 -592 -445 -215 -121 -498 -227 -704 -263 -154
-27 -440 -36 -636 -20 -341 28 -529 81 -827 232 -239 122 -445 268 -686 488
-79 72 -144 131 -145 130 -1 0 -90 -35 -197 -76z"/>
</g>
</svg>
