<?xml version="1.0" standalone="no"?>
<!DOCTYPE svg PUBLIC "-//W3C//DTD SVG 20010904//EN"
 "http://www.w3.org/TR/2001/REC-SVG-20010904/DTD/svg10.dtd">
<svg version="1.0" xmlns="http://www.w3.org/2000/svg"
 width="900.000000pt" height="900.000000pt" viewBox="0 0 900.000000 900.000000"
 preserveAspectRatio="xMidYMid meet">
<metadata>
Created by potrace 1.16, written by Peter Selinger 2001-2019
</metadata>
<g transform="translate(0.000000,900.000000) scale(0.100000,-0.100000)"
fill="#000000" stroke="none">
<path d="M4275 8464 c-16 -2 -73 -9 -125 -15 -357 -40 -670 -169 -734 -303
-20 -43 -21 -98 0 -138 l16 -30 -44 8 c-24 5 -88 9 -143 8 -126 0 -191 -23
-272 -97 -104 -95 -166 -224 -208 -433 -47 -231 -49 -619 -4 -955 20 -152 24
-168 109 -396 l88 -238 -36 -30 c-63 -51 -93 -88 -120 -145 -38 -80 -34 -174
12 -355 21 -80 43 -198 51 -274 8 -74 24 -163 36 -199 38 -113 132 -184 225
-169 37 6 39 2 43 -83 14 -336 141 -619 331 -736 l57 -35 12 -98 c12 -103 16
-295 6 -311 -4 -6 -72 -10 -166 -10 l-159 0 0 -67 c0 -73 -19 -235 -29 -250
-3 -6 -62 -37 -131 -70 -69 -33 -197 -102 -285 -152 -88 -51 -214 -118 -280
-151 -211 -102 -676 -296 -1215 -505 -233 -90 -347 -133 -780 -291 -232 -85
-403 -248 -493 -469 l-32 -80 -3 -432 -3 -433 3323 1 c3247 1 3320 2 3193 19
-934 130 -1660 852 -1790 1781 -29 207 -17 532 26 724 111 498 385 925 788
1229 55 41 129 92 165 113 74 44 73 41 81 208 4 81 9 109 18 106 40 -14 96 -4
134 22 85 59 151 181 234 432 109 332 122 549 38 664 -32 45 -71 69 -132 80
-24 4 -41 13 -40 19 40 187 57 438 50 742 -9 410 -51 778 -108 954 -151 462
-594 759 -1240 831 -119 13 -382 18 -464 9z"/>
<path d="M6855 4574 c-16 -2 -66 -9 -110 -15 -319 -41 -689 -205 -950 -419
-87 -72 -257 -246 -317 -325 -399 -526 -512 -1196 -308 -1815 281 -848 1119
-1411 2001 -1342 468 36 893 224 1223 542 549 528 744 1315 504 2039 -223 672
-788 1167 -1492 1307 -108 22 -165 27 -326 29 -107 2 -208 1 -225 -1z m505
-1093 l0 -548 553 0 552 1 3 -317 2 -317 -555 0 -555 0 0 -550 0 -550 -322 2
-323 3 -3 547 -2 548 -553 2 -552 3 -1 313 -1 312 51 1 c28 1 277 1 554 2
l502 0 0 549 0 548 325 0 325 0 0 -549z"/>
</g>
</svg>
