<?xml version="1.0" standalone="no"?>
<!DOCTYPE svg PUBLIC "-//W3C//DTD SVG 20010904//EN"
 "http://www.w3.org/TR/2001/REC-SVG-20010904/DTD/svg10.dtd">
<svg version="1.0" xmlns="http://www.w3.org/2000/svg"
 width="640.000000pt" height="640.000000pt" viewBox="0 0 640.000000 640.000000"
 preserveAspectRatio="xMidYMid meet">
<metadata>
Created by potrace 1.16, written by Peter Selinger 2001-2019
</metadata>
<g transform="translate(0.000000,640.000000) scale(0.100000,-0.100000)"
fill="#000000" stroke="none">
<path d="M605 5790 l-610 -610 990 -990 990 -990 -990 -990 -990 -990 613
-612 612 -613 990 990 990 990 990 -990 990 -990 612 613 613 612 -990 990
-990 990 990 990 990 990 -613 612 -612 613 -990 -990 -990 -990 -987 987
c-544 544 -990 988 -993 988 -3 0 -280 -275 -615 -610z"/>
</g>
</svg>
