<?xml version="1.0" standalone="no"?>
<!DOCTYPE svg PUBLIC "-//W3C//DTD SVG 20010904//EN"
 "http://www.w3.org/TR/2001/REC-SVG-20010904/DTD/svg10.dtd">
<svg version="1.0" xmlns="http://www.w3.org/2000/svg"
 width="820.000000pt" height="861.000000pt" viewBox="0 0 820.000000 861.000000"
 preserveAspectRatio="xMidYMid meet">
<metadata>
Created by potrace 1.16, written by Peter Selinger 2001-2019
</metadata>
<g transform="translate(0.000000,861.000000) scale(0.100000,-0.100000)"
fill="#000000" stroke="none">
<path d="M5250 8185 c-350 -44 -675 -159 -1003 -355 -289 -172 -636 -518 -823
-820 -209 -336 -338 -720 -375 -1114 -14 -157 -7 -449 16 -596 48 -315 155
-618 315 -896 38 -67 70 -127 70 -134 0 -6 -21 -37 -47 -68 -91 -112 -134
-255 -113 -374 6 -34 9 -72 5 -86 -6 -24 -439 -472 -456 -472 -5 0 -25 11 -45
25 -20 14 -45 25 -55 25 -19 0 -186 -151 -719 -650 -899 -840 -1342 -1261
-1586 -1504 -317 -317 -334 -342 -334 -478 0 -211 91 -363 267 -446 54 -25 67
-27 188 -27 218 0 200 -15 924 750 996 1053 1682 1791 1728 1861 18 27 11 53
-24 95 l-26 31 234 233 234 233 77 -16 c66 -14 88 -14 150 -4 90 15 198 65
261 122 l47 42 38 -22 c350 -208 609 -307 952 -364 943 -156 1872 220 2445
989 266 358 416 722 481 1170 25 168 25 504 0 680 -62 445 -255 895 -534 1245
-90 112 -266 291 -374 378 -387 313 -861 508 -1343 552 -149 14 -446 11 -575
-5z m455 -615 c269 -18 483 -77 730 -202 479 -241 851 -699 979 -1203 114
-451 68 -912 -129 -1320 -167 -344 -444 -638 -786 -831 -414 -234 -935 -301
-1404 -179 -684 178 -1201 696 -1379 1380 -41 155 -49 262 -43 525 5 202 9
250 30 341 85 362 256 673 509 930 259 261 580 441 928 519 211 48 331 56 565
40z"/>
</g>
</svg>
